<svg width="211" height="211" viewBox="0 0 211 211" fill="none" xmlns="http://www.w3.org/2000/svg">
<g opacity="0.15">
<rect x="46.6422" y="68.8527" width="24.4316" height="24.4316" fill="#C16B55"/>
<rect x="93.2843" y="93.2842" width="24.4316" height="24.4316" fill="#C16B55"/>
<rect x="46.6422" y="115.495" width="24.4316" height="24.4316" fill="#C16B55"/>
</g>
<g opacity="0.05">
<rect x="7.62939e-05" y="46.6422" width="24.4316" height="24.4316" fill="#D95877"/>
<rect x="139.926" y="115.495" width="24.4316" height="24.4316" fill="#D95877"/>
<rect x="7.62939e-05" y="93.2842" width="24.4316" height="24.4316" fill="#D95877"/>
<rect x="93.2842" y="139.926" width="24.4316" height="24.4316" fill="#D95877"/>
<rect x="6.10352e-05" y="139.926" width="24.4316" height="24.4316" fill="#D95877"/>
<rect x="46.6422" y="162.137" width="24.4316" height="24.4316" fill="#D95877"/>
<rect y="186.568" width="24.4316" height="24.4316" fill="#D95877"/>
<rect x="7.62939e-05" y="1.52588e-05" width="24.4316" height="24.4316" fill="#D95877"/>
<rect x="46.6422" y="22.2105" width="24.4316" height="24.4316" fill="#D95877"/>
<rect x="93.2843" y="46.6422" width="24.4316" height="24.4316" fill="#D95877"/>
<rect x="139.926" y="68.8527" width="24.4316" height="24.4316" fill="#D95877"/>
<rect x="186.568" y="93.2842" width="24.4316" height="24.4316" fill="#D95877"/>
</g>
</svg>
