<svg width="32" height="32" viewBox="0 0 32 32" fill="none" xmlns="http://www.w3.org/2000/svg">
<path d="M16.1505 2.59857C8.9746 2.59857 3.15771 8.41546 3.15771 15.5914C3.15771 21.3648 6.92628 26.2527 12.1358 27.945H20.1653C25.3748 26.2527 29.1434 21.3648 29.1434 15.5914C29.1434 8.41546 23.3265 2.59857 16.1505 2.59857Z" fill="#D95877"/>
<path opacity="0.05" d="M20.0549 27.2823L20.0484 23.5157C20.0484 22.9057 19.9055 22.31 19.6313 21.7701C23.2959 21.0341 25.0792 18.8675 25.0792 15.1587C25.0792 13.6938 24.6472 12.4004 23.7955 11.3129C23.8605 11.1069 23.9086 10.8938 23.9384 10.6756C24.0606 9.7862 23.9235 9.20477 23.8131 8.73703L23.7955 8.66167C23.6747 8.14455 23.5298 7.77556 23.524 7.75997L23.4519 7.57677L23.3798 7.39357L23.1836 7.37278L22.9867 7.35199C22.9867 7.35199 22.8574 7.33835 22.6612 7.33835C22.389 7.33835 21.9856 7.36563 21.6043 7.49491L21.477 7.53779C20.9962 7.69955 20.5421 7.85286 19.9068 8.23226C19.721 8.34334 19.5176 8.47002 19.3 8.61165C18.3164 8.36803 17.2582 8.24395 16.1505 8.24395C15.0319 8.24395 13.9645 8.36868 12.9744 8.61489C12.7542 8.47197 12.5496 8.34399 12.3625 8.23226C11.7271 7.85286 11.273 7.7002 10.7923 7.53779L10.665 7.49491C10.2849 7.36563 9.88085 7.33835 9.60865 7.33835C9.41246 7.33835 9.28318 7.35199 9.28318 7.35199L9.08699 7.37278L8.89209 7.39292L8.81933 7.57547L8.74592 7.75932C8.73943 7.77621 8.59456 8.1452 8.47372 8.66297L8.45618 8.73768C8.34575 9.20477 8.20867 9.78685 8.3308 10.6756C8.36199 10.9003 8.41201 11.1206 8.48022 11.3323C7.64543 12.4146 7.22252 13.7009 7.22252 15.1587C7.22252 18.8584 9.00773 21.0237 12.6776 21.7656C12.5515 22.0176 12.4534 22.284 12.3839 22.5607C12.2559 22.6043 12.1384 22.6335 12.0344 22.6497C11.8798 22.6731 11.718 22.6848 11.5543 22.6848C11.1087 22.6848 10.7585 22.5978 10.6221 22.5166C10.4188 22.3957 10.0556 22.0443 9.7035 21.5304C9.40271 21.0919 8.93367 20.5183 8.40941 20.2786C7.95596 20.0713 7.47588 19.9524 7.09129 19.9524C7.00164 19.9524 6.91913 19.9589 6.84702 19.9706C6.51116 20.0239 6.23051 20.2084 6.07785 20.4773C5.94597 20.7093 5.92518 20.9795 6.02068 21.2186C6.16295 21.5746 6.57352 21.8585 6.89315 22.0339C7.05036 22.1203 7.39012 22.436 7.58826 22.7543C7.73703 22.9934 7.80589 23.1636 7.90139 23.3988C7.95791 23.5385 8.02028 23.6905 8.10473 23.8743C8.41006 24.5383 9.36308 25.1242 9.47093 25.1885C9.99454 25.5023 10.8748 25.603 11.5218 25.6323L11.6017 25.6342H11.6024C11.7583 25.6342 11.9727 25.6193 12.2546 25.5881V27.2856C12.2559 27.6292 11.9058 27.7072 11.4426 27.7001L11.7979 27.8196C13.1589 28.3062 14.6206 28.5842 16.1505 28.5842C17.6804 28.5842 19.1421 28.3062 20.5051 27.8202L20.9618 27.65C20.4999 27.6344 20.0588 27.5591 20.0549 27.2823Z" fill="black"/>
<path opacity="0.07" d="M20.5558 27.8027C20.292 27.8332 19.7236 27.7319 19.7236 27.2863V23.5157C19.7236 22.805 19.5105 22.1184 19.1155 21.533C22.9581 20.9113 24.7537 18.874 24.7537 15.1587C24.7537 13.7055 24.3081 12.4341 23.4291 11.3765C23.5181 11.1394 23.5805 10.8893 23.6162 10.6314C23.7299 9.80245 23.6058 9.27624 23.4967 8.81174L23.4791 8.73639C23.3635 8.24201 23.2271 7.8938 23.2212 7.87951L23.1491 7.69631L22.9523 7.67552C22.9523 7.67552 22.8366 7.66318 22.6606 7.66318C22.4131 7.66318 22.0473 7.68721 21.7082 7.80285L21.5809 7.84573C21.117 8.00229 20.6785 8.14976 20.0731 8.51096C19.8574 8.63959 19.617 8.79096 19.3578 8.96181C18.3619 8.70131 17.2842 8.56878 16.1505 8.56878C15.0059 8.56878 13.919 8.70195 12.916 8.96506C12.6542 8.7929 12.4125 8.64089 12.1955 8.51096C11.5901 8.14976 11.1515 8.00164 10.6877 7.84573L10.5604 7.80285C10.2219 7.68786 9.85551 7.66318 9.608 7.66318C9.43194 7.66318 9.31631 7.67552 9.31631 7.67552L9.12012 7.69631L9.04671 7.88016C9.04086 7.89445 8.90444 8.24266 8.7888 8.73704L8.77126 8.81239C8.66147 9.27689 8.53739 9.80245 8.65172 10.6314C8.6881 10.8958 8.75307 11.1518 8.84532 11.3941C7.98324 12.4465 7.54668 13.7113 7.54668 15.1587C7.54668 18.8636 9.34359 20.9003 13.1895 21.5291C12.9329 21.9124 12.7536 22.3444 12.6613 22.805C12.4469 22.8895 12.2527 22.9453 12.0825 22.9713C11.9116 22.9973 11.7336 23.0103 11.5537 23.0103C11.1054 23.0103 10.6747 22.9265 10.4558 22.7966C10.1699 22.627 9.76911 22.2028 9.43454 21.7149C9.20717 21.3836 8.75437 20.7944 8.27298 20.5748C7.86046 20.3864 7.42975 20.2779 7.08999 20.2779C7.01853 20.2779 6.95356 20.2831 6.89639 20.2922C6.65862 20.3299 6.46243 20.4559 6.35849 20.6391C6.27534 20.7846 6.26169 20.9529 6.32016 21.0991C6.43645 21.3901 6.86716 21.6513 7.04711 21.75C7.26474 21.8695 7.64413 22.2333 7.86176 22.5841C8.02482 22.8466 8.10213 23.0369 8.20022 23.2773C8.25544 23.4131 8.31586 23.5612 8.39771 23.7399C8.61275 24.2069 9.27668 24.6961 9.63528 24.9112C10.1251 25.2048 11.0346 25.2867 11.5335 25.3087L11.6056 25.31C11.7999 25.31 12.1254 25.2808 12.5769 25.2223V27.2863C12.5769 27.7923 11.9331 27.8125 11.7752 27.8125C11.7551 27.8125 12.102 27.932 12.102 27.932C13.3772 28.3504 14.7356 28.5842 16.1505 28.5842C17.5655 28.5842 18.9239 28.3504 20.1985 27.9326C20.1985 27.9326 20.5759 27.8001 20.5558 27.8027Z" fill="black"/>
<path d="M24.4296 15.1587C24.4296 13.6581 23.9216 12.4134 23.0543 11.4376C23.1485 11.2265 23.2466 10.9432 23.2953 10.5872C23.407 9.77516 23.2752 9.28792 23.1634 8.81109C23.0517 8.33425 22.9198 7.99904 22.9198 7.99904C22.9198 7.99904 22.3208 7.93797 21.8135 8.11077C21.3061 8.28358 20.8695 8.41546 20.24 8.79095C19.9458 8.96635 19.6495 9.15865 19.415 9.31456C18.4126 9.03651 17.3102 8.89359 16.1505 8.89359C14.9805 8.89359 13.8684 9.03716 12.8588 9.31716C12.6236 9.1606 12.3255 8.967 12.0292 8.7903C11.3997 8.41481 10.9632 8.28293 10.4558 8.11012C9.94841 7.93732 9.34945 7.99839 9.34945 7.99839C9.34945 7.99839 9.21757 8.3336 9.10583 8.81044C8.99409 9.28728 8.86221 9.77451 8.97395 10.5866C9.02397 10.9517 9.12532 11.2401 9.22212 11.4525C8.37108 12.4224 7.87216 13.6594 7.87216 15.1581C7.87216 19.0449 9.9718 20.8191 13.7975 21.2875C13.3512 21.7591 13.0518 22.3633 12.9511 23.0356C12.6996 23.1461 12.4099 23.25 12.1312 23.2916C11.414 23.4001 10.6559 23.2916 10.2908 23.0753C9.92568 22.8589 9.49237 22.3717 9.16755 21.8975C8.8934 21.4973 8.49777 21.0328 8.13916 20.8691C7.66557 20.6528 7.20498 20.5716 6.94837 20.6118C6.69111 20.6528 6.56963 20.8418 6.62355 20.9776C6.67747 21.1127 6.93473 21.316 7.20563 21.4648C7.47653 21.6136 7.8962 22.0196 8.13981 22.412C8.41136 22.8498 8.46463 23.1026 8.69461 23.6028C8.85637 23.9549 9.40986 24.3947 9.80419 24.6312C10.1427 24.8345 10.8189 24.9501 11.5504 24.9833C11.8031 24.995 12.4002 24.9209 12.9036 24.8494V27.2856C12.9036 27.7007 12.5236 28.0164 12.1299 27.9437C13.3935 28.3685 14.7428 28.5842 16.1505 28.5842C17.5577 28.5842 18.907 28.3685 20.1718 27.945C19.7788 28.0171 19.3988 27.7014 19.3988 27.2862V23.5157C19.3988 22.6524 19.0564 21.8721 18.5068 21.2907C22.3046 20.8347 24.4296 19.1027 24.4296 15.1587ZM7.86047 21.2608C7.76042 21.2095 7.7065 21.1146 7.74028 21.0477C7.77406 20.9808 7.8832 20.9685 7.98325 21.0198C8.08329 21.0711 8.13721 21.166 8.10343 21.2329C8.06965 21.2998 7.96051 21.3121 7.86047 21.2608ZM8.64783 21.7513C8.59521 21.8085 8.48217 21.7903 8.39512 21.711C8.30807 21.6318 8.28013 21.5207 8.33276 21.4635C8.38538 21.4063 8.49841 21.4245 8.58547 21.5038C8.67252 21.583 8.70045 21.6941 8.64783 21.7513ZM9.13766 22.5634C9.0714 22.6101 8.95901 22.5666 8.8869 22.4659C8.81479 22.3652 8.81024 22.245 8.87651 22.1983C8.94277 22.1515 9.05516 22.195 9.12727 22.2957C9.19873 22.3964 9.20393 22.5166 9.13766 22.5634ZM9.84122 23.1747C9.7964 23.2474 9.66907 23.2507 9.55733 23.1825C9.44559 23.1142 9.39102 22.9999 9.43585 22.9272C9.48067 22.8544 9.608 22.8511 9.71974 22.9194C9.83148 22.9876 9.88605 23.1019 9.84122 23.1747ZM10.5065 23.773C10.3681 23.7561 10.2654 23.6697 10.2771 23.58C10.2882 23.4904 10.4097 23.4319 10.5474 23.4488C10.6858 23.4657 10.7884 23.5521 10.7767 23.6418C10.7657 23.7308 10.6448 23.7899 10.5065 23.773ZM11.579 23.9282C11.4315 23.9198 11.3166 23.8353 11.3224 23.7405C11.3283 23.6457 11.4523 23.5748 11.5998 23.5833C11.7473 23.5917 11.8623 23.6762 11.8564 23.771C11.8506 23.8665 11.7265 23.9367 11.579 23.9282ZM12.5912 23.8269C12.4339 23.8269 12.3066 23.745 12.3066 23.6444C12.3066 23.5437 12.4339 23.4618 12.5912 23.4618C12.7484 23.4618 12.8757 23.5437 12.8757 23.6444C12.8757 23.745 12.7477 23.8269 12.5912 23.8269Z" fill="#22103C"/>
</svg>
