<svg width="33" height="33" viewBox="0 0 33 33" fill="none" xmlns="http://www.w3.org/2000/svg">
<path d="M11.0402 3.8392C6.92751 3.8392 3.58115 7.18754 3.58115 11.3013V21.9588C3.58115 26.072 6.92949 29.4188 11.0432 29.4188H21.7007C25.8139 29.4188 29.1608 26.0705 29.1608 21.9568V11.2983C29.1608 7.18557 25.8124 3.8392 21.6987 3.8392H11.0402ZM24.0449 7.93194C24.6097 7.93194 25.068 8.39033 25.068 8.95513C25.068 9.51993 24.6097 9.97832 24.0449 9.97832C23.4801 9.97832 23.0217 9.51993 23.0217 8.95513C23.0217 8.39033 23.4801 7.93194 24.0449 7.93194ZM16.371 9.97832C20.0391 9.97832 23.0217 12.9609 23.0217 16.629C23.0217 20.2971 20.0386 23.2797 16.371 23.2797C12.7028 23.2797 9.72026 20.2966 9.72026 16.629C9.72026 12.9614 12.7028 9.97832 16.371 9.97832ZM16.371 12.0247C13.8278 12.0247 11.7666 14.0859 11.7666 16.629C11.7666 19.1721 13.8278 21.2334 16.371 21.2334C18.9141 21.2334 20.9753 19.1721 20.9753 16.629C20.9753 14.0859 18.9141 12.0247 16.371 12.0247Z" fill="#D95877"/>
</svg>
