<svg width="28" height="28" viewBox="0 0 28 28" fill="none" xmlns="http://www.w3.org/2000/svg">
<path d="M24.2478 0.537659H4.05326C2.31148 0.537659 0.897858 1.95128 0.897858 3.69306V23.8876C0.897858 25.6294 2.31148 27.043 4.05326 27.043H24.2478C25.9896 27.043 27.4032 25.6294 27.4032 23.8876V3.69306C27.4032 1.95128 25.9896 0.537659 24.2478 0.537659ZM9.1019 10.6349V22.6255H5.31542V10.6349H9.1019ZM5.31542 7.14507C5.31542 6.26156 6.07272 5.5863 7.20866 5.5863C8.34461 5.5863 9.05773 6.26156 9.1019 7.14507C9.1019 8.02858 8.39509 8.7417 7.20866 8.7417C6.07272 8.7417 5.31542 8.02858 5.31542 7.14507ZM22.9857 22.6255H19.1992C19.1992 22.6255 19.1992 16.7817 19.1992 16.3147C19.1992 15.0525 18.5681 13.7903 16.9904 13.7651H16.9399C15.4127 13.7651 14.7816 15.0651 14.7816 16.3147C14.7816 16.889 14.7816 22.6255 14.7816 22.6255H10.9951V10.6349H14.7816V12.2505C14.7816 12.2505 15.9996 10.6349 18.4482 10.6349C20.9536 10.6349 22.9857 12.3578 22.9857 15.8477V22.6255Z" fill="#D95877"/>
</svg>
