<svg width="40" height="40" viewBox="0 0 40 40" fill="none" xmlns="http://www.w3.org/2000/svg">
<circle cx="20" cy="20" r="18.5" stroke="#DC6176" stroke-width="3"/>
<path d="M16.64 10.28C17.04 10.8 17.28 11.44 17.28 12.36C17.28 12.9 17.2 13.3 17.08 13.62C16.96 13.96 16.8 14.2 16.6 14.38C16.36 14.62 16.08 14.84 15.78 14.94C15.58 15 15.36 15.08 15.12 15.14C14.9 15.2 14.68 15.22 14.46 15.24H13.24V9.64L13.68 9.66C15.38 9.66 16.28 9.88 16.64 10.28ZM17.24 16.08C18.08 15.8 18.78 15.38 19.3 14.88C20.08 14.14 20.46 13.22 20.46 12.16C20.46 11.26 20.16 10.46 19.56 9.8C18.96 9.14 18.2 8.76 17.3 8.5C16.4 8.24 15.24 8.16 13.88 8.16H10.3V12.22V19.18V23.46H13.24V19.18V16.6L13.4 16.62C17.06 16.62 18.98 22.48 19.22 23.46H21.88C20.3 19.54 19.2 18.06 19.2 18.06C18.64 17.32 18 16.6 17.24 16.08Z" fill="#DC6176"/>
<path d="M28.62 17.54V16.14H19.32V20.16V25.44V26.3V27.3V31.44H28.58V30.06H23.72H22.3V27.3V26.3V25.76V25.44V24.12H23.36H26.44V22.74H23.3H22.3V20.6V20.18V17.54H23.76H28.62Z" fill="#DC6176"/>
</svg>
