<svg width="138" height="138" viewBox="0 0 138 138" fill="none" xmlns="http://www.w3.org/2000/svg">
<circle cx="69" cy="69" r="65" stroke="#DC6176" stroke-width="8"/>
<path d="M58.7101 41.7029C59.9901 43.3669 60.7581 45.4149 60.7581 48.3589C60.7581 50.0869 60.5021 51.3669 60.1181 52.3909C59.7341 53.4789 59.2221 54.2469 58.5821 54.8229C57.8141 55.5909 56.9181 56.2949 55.9581 56.6149C55.3181 56.8069 54.6141 57.0629 53.8461 57.2549C53.1421 57.4469 52.4381 57.5109 51.7341 57.5749H47.8301V39.6549L49.2381 39.7189C54.6781 39.7189 57.5581 40.4229 58.7101 41.7029ZM60.6301 60.2629C63.3181 59.3669 65.5581 58.0229 67.2221 56.4229C69.7181 54.0549 70.9341 51.1109 70.9341 47.7189C70.9341 44.8389 69.9741 42.2789 68.0541 40.1669C66.1341 38.0549 63.7021 36.8389 60.8221 36.0069C57.9421 35.1749 54.2301 34.9189 49.8781 34.9189H38.4221V47.9109V70.1829V83.8789H47.8301V70.1829V61.9269L48.3421 61.9909C60.0541 61.9909 66.1981 80.7429 66.9661 83.8789H75.4781C70.4221 71.3349 66.9021 66.5989 66.9021 66.5989C65.1101 64.2309 63.0621 61.9269 60.6301 60.2629Z" fill="#DC6176"/>
<path d="M98.9392 67.2918V62.8118H69.1792V75.6758V92.5718V95.3238V98.5238V111.772H98.8112V107.356H83.2592H78.7152V98.5238V95.3238V93.5958V92.5718V88.3478H82.1072H91.9632V83.9318H81.9152H78.7152V77.0838V75.7398V67.2918H83.3872H98.9392Z" fill="#DC6176"/>
</svg>
