<svg width="40" height="40" viewBox="0 0 40 40" fill="none" xmlns="http://www.w3.org/2000/svg">
<path d="M18.64 10.28C19.04 10.8 19.28 11.44 19.28 12.36C19.28 12.9 19.2 13.3 19.08 13.62C18.96 13.96 18.8 14.2 18.6 14.38C18.36 14.62 18.08 14.84 17.78 14.94C17.58 15 17.36 15.08 17.12 15.14C16.9 15.2 16.68 15.22 16.46 15.24H15.24V9.64L15.68 9.66C17.38 9.66 18.28 9.88 18.64 10.28ZM19.24 16.08C20.08 15.8 20.78 15.38 21.3 14.88C22.08 14.14 22.46 13.22 22.46 12.16C22.46 11.26 22.16 10.46 21.56 9.8C20.96 9.14 20.2 8.76 19.3 8.5C18.4 8.24 17.24 8.16 15.88 8.16H12.3V12.22V19.18V23.46H15.24V19.18V16.6L15.4 16.62C19.06 16.62 20.98 22.48 21.22 23.46H23.88C22.3 19.54 21.2 18.06 21.2 18.06C20.64 17.32 20 16.6 19.24 16.08Z" fill="#DC6176"/>
<path d="M30.62 17.54V16.14H21.32V20.16V25.44V26.3V27.3V31.44H30.58V30.06H25.72H24.3V27.3V26.3V25.76V25.44V24.12H25.36H28.44V22.74H25.3H24.3V20.6V20.18V17.54H25.76H30.62Z" fill="#DC6176"/>
<rect x="1.5" y="1.5" width="37" height="37" stroke="#D95877" stroke-width="3"/>
</svg>
