<svg width="129" height="132" viewBox="0 0 129 132" fill="none" xmlns="http://www.w3.org/2000/svg">
<path d="M54.448 33.296C55.728 34.96 56.496 37.008 56.496 39.952C56.496 41.68 56.24 42.96 55.856 43.984C55.472 45.072 54.96 45.84 54.32 46.416C53.552 47.184 52.656 47.888 51.696 48.208C51.056 48.4 50.352 48.656 49.584 48.848C48.88 49.04 48.176 49.104 47.472 49.168H43.568V31.248L44.976 31.312C50.416 31.312 53.296 32.016 54.448 33.296ZM56.368 51.856C59.056 50.96 61.296 49.616 62.96 48.016C65.456 45.648 66.672 42.704 66.672 39.312C66.672 36.432 65.712 33.872 63.792 31.76C61.872 29.648 59.44 28.432 56.56 27.6C53.68 26.768 49.968 26.512 45.616 26.512H34.16V39.504V61.776V75.472H43.568V61.776V53.52L44.08 53.584C55.792 53.584 61.936 72.336 62.704 75.472H71.216C66.16 62.928 62.64 58.192 62.64 58.192C60.848 55.824 58.8 53.52 56.368 51.856Z" fill="#DC6176"/>
<path d="M94.6771 58.8849V54.4049H64.9171V67.2689V84.1649V86.9169V90.1169V103.365H94.5491V98.9489H78.9971H74.4531V90.1169V86.9169V85.1889V84.1649V79.9409H77.8451H87.7011V75.5249H77.6531H74.4531V68.6769V67.3329V58.8849H79.1251H94.6771Z" fill="#DC6176"/>
<rect x="4" y="4" width="121" height="124" stroke="#D95877" stroke-width="8"/>
</svg>
