<svg width="179" height="181" viewBox="0 0 179 181" fill="none" xmlns="http://www.w3.org/2000/svg">
<g opacity="0.15">
<rect x="140.211" y="121.763" width="20.8421" height="20.8421" transform="rotate(-180 140.211 121.763)" fill="#C16B55"/>
<rect x="100.421" y="100.921" width="20.8421" height="20.8421" transform="rotate(-180 100.421 100.921)" fill="#C16B55"/>
<rect x="140.211" y="81.9737" width="20.8421" height="20.8421" transform="rotate(-180 140.211 81.9737)" fill="#C16B55"/>
</g>
<g opacity="0.05">
<rect x="180" y="140.71" width="20.8421" height="20.8421" transform="rotate(-180 180 140.71)" fill="#D95877"/>
<rect class="shape" x="60.6316" y="81.9736" width="20.8421" height="20.8421" transform="rotate(-180 60.6316 81.9736)" fill="#D95877"/>
<rect x="180" y="100.921" width="20.8421" height="20.8421" transform="rotate(-180 180 100.921)" fill="#D95877"/>
<rect x="100.421" y="61.1316" width="20.8421" height="20.8421" transform="rotate(-180 100.421 61.1316)" fill="#D95877"/>
<rect x="180" y="61.1316" width="20.8421" height="20.8421" transform="rotate(-180 180 61.1316)" fill="#D95877"/>
<rect x="140.211" y="42.1842" width="20.8421" height="20.8421" transform="rotate(-180 140.211 42.1842)" fill="#D95877"/>
<rect x="180" y="21.3422" width="20.8421" height="20.8421" transform="rotate(-180 180 21.3422)" fill="#D95877"/>
<rect x="180" y="180.5" width="20.8421" height="20.8421" transform="rotate(-180 180 180.5)" fill="#D95877"/>
<rect x="140.211" y="161.553" width="20.8421" height="20.8421" transform="rotate(-180 140.211 161.553)" fill="#D95877"/>
<rect x="100.421" y="140.71" width="20.8421" height="20.8421" transform="rotate(-180 100.421 140.71)" fill="#D95877"/>
<rect x="60.6316" y="121.763" width="20.8421" height="20.8421" transform="rotate(-180 60.6316 121.763)" fill="#D95877"/>
<rect x="20.8421" y="100.921" width="20.8421" height="20.8421" transform="rotate(-180 20.8421 100.921)" fill="#D95877"/>
</g>
</svg>
