<svg width="27" height="27" viewBox="0 0 27 27" fill="none" xmlns="http://www.w3.org/2000/svg">
<path d="M25.9876 6.79183C25.1183 7.17699 24.1836 7.43376 23.1975 7.55511C24.2002 6.95998 24.9713 6.01075 25.3333 4.88925C24.3952 5.43923 23.3562 5.84302 22.2504 6.0559C21.3674 5.11992 20.108 4.53929 18.7127 4.53929C16.0324 4.53929 13.8602 6.69285 13.8602 9.34795C13.8602 9.72358 13.9041 10.0897 13.9869 10.445C9.95479 10.2425 6.37863 8.32583 3.98611 5.41687C3.56575 6.12754 3.32927 6.95998 3.32927 7.83838C3.32927 9.50781 4.18407 10.9772 5.48739 11.8432C4.69181 11.8187 3.94304 11.5976 3.28744 11.2427C3.28744 11.2572 3.28744 11.2787 3.28744 11.299C3.28744 13.6319 4.96059 15.5742 7.17835 16.0165C6.7729 16.1275 6.34467 16.1892 5.90319 16.1892C5.58968 16.1892 5.28446 16.1536 4.98875 16.1006C5.60625 18.0069 7.39785 19.4005 9.52035 19.4415C7.85962 20.7291 5.76818 21.5002 3.49369 21.5002C3.10066 21.5002 2.71675 21.4779 2.33698 21.4319C4.48515 22.7924 7.03671 23.59 9.77546 23.59C18.6999 23.59 23.5819 16.2613 23.5819 9.90373C23.5819 9.69542 23.5752 9.48793 23.5653 9.28293C24.5182 8.61035 25.3391 7.76135 25.9876 6.79183Z" fill="#D95877"/>
</svg>
